rec1_001.mot
nRows=25
nColumns=19

name rec1_001.mot
datacolumns 19
datarows 25
range 10.0000778291 10.2400797051
endheader
time	ground_force_vx	ground_force_vy	ground_force_vz	ground_force_px	ground_force_py	ground_force_pz	1_ground_force_vx	1_ground_force_vy	1_ground_force_vz	1_ground_force_px	1_ground_force_py	1_ground_force_pz	ground_torque_x	ground_torque_y	ground_torque_z	1_ground_torque_x	1_ground_torque_y	1_ground_torque_z	
       10.0000778291	      -53.7392309102	      781.4259650630	      -61.7492727590	        0.4229060942	       -0.0180000000	        0.0912883812	       -0.3496465640	        3.2592708881	        0.4894585119	        0.1012307249	       -0.0180000000	       -0.1601400651	      319.2043881799	       48.6437830038	      720.7187387185	       -0.3861122037	        0.4377817806	        1.9961234650	
       10.0100776256	      -46.6952636949	      787.2147834024	      -61.3136421584	        0.4118024840	       -0.0180000000	        0.0923868983	       -0.3396992545	        2.9688333497	        0.4149021762	        0.1006276209	       -0.0180000000	       -0.1600451728	      306.3990960077	       46.6063357561	      686.7374383803	       -0.2795376519	        0.5478851569	        1.3861820012	
       10.0200780221	      -40.0894084093	      785.7722417416	      -59.2410880744	        0.4018039820	       -0.0180000000	        0.0933243683	       -0.2032135188	        2.9833976041	        0.4638884964	        0.0999640719	       -0.0180000000	       -0.1599723292	      294.2095930406	       43.3618321591	      654.2430624211	       -0.2719472703	        0.5261319326	        0.5814092368	
       10.0300777787	      -34.0343131661	      777.5407223248	      -55.5845723857	        0.3925569268	       -0.0180000000	        0.0939799095	       -0.0331008031	        3.1530095575	        0.4022190479	        0.0996618152	       -0.0180000000	       -0.1599531311	      283.0982495621	       38.9806712991	      624.0216818191	       -0.2875021010	        0.5928299872	        0.0023776602	
       10.0400781752	      -28.1368410309	      763.2622818553	      -50.6568087392	        0.3837036786	       -0.0180000000	        0.0943209942	        0.0521446022	        3.3696526157	        0.3385677545	        0.0997137793	       -0.0180000000	       -0.1599713949	      273.5249565357	       33.5892140998	      596.8673194535	       -0.2998764989	        0.6424460744	       -0.0129910839	
       10.0500780115	      -21.9877403183	      743.9410246454	      -45.4634070703	        0.3749279845	       -0.0180000000	        0.0943841616	        0.0758517981	        3.5778822755	        0.3687777497	        0.0999078072	       -0.0180000000	       -0.1599971578	      265.7313347198	       27.8670261414	      573.3005529589	       -0.3155611624	        0.5717033358	        0.5420458048	
       10.0600783281	      -15.4583907078	      720.7825510447	      -41.1310001414	        0.3659787070	       -0.0180000000	        0.0942891796	       -0.0017430798	        3.6469265722	        0.3365250386	        0.1000567380	       -0.0180000000	       -0.1600113923	      259.5643645618	       22.7161192851	      553.1849938209	       -0.2929631676	        0.5915605027	        1.3068062590	
       10.0700781246	       -8.6871110933	      695.1173889145	      -38.6298045128	        0.3566762464	       -0.0180000000	        0.0941142772	       -0.1642414922	        3.5101468314	        0.4412644999	        0.1000959006	       -0.0180000000	       -0.1600116164	      254.7258744567	       19.0051737915	      535.9395146870	       -0.2374102063	        0.4615070891	        1.8180842221	
       10.0800784811	       -2.0221763327	      668.3117562450	      -38.2404189309	        0.3469082877	       -0.0180000000	        0.0938894507	       -0.3158393569	        3.2130385514	        0.5873301939	        0.1000584631	       -0.0180000000	       -0.1600048779	      251.1532415128	       17.0161746699	      521.4133926399	       -0.1740783564	        0.2969362190	        1.7606243104	
       10.0900782775	        3.9894323381	      641.6731570544	      -39.2190776942	        0.3366194964	       -0.0180000000	        0.0936478192	       -0.4317657281	        2.9267945817	        0.5801143005	        0.1000057470	       -0.0180000000	       -0.1599987169	      249.0446002825	       16.2058303648	      510.1294393083	       -0.1538046429	        0.2808539243	        1.2616845641	
       10.1000787941	        8.9044190439	      616.3666471532	      -40.6170309986	        0.3257999461	       -0.0180000000	        0.0932897087	       -0.4557727297	        2.8601898056	        0.5294995910	        0.0999766559	       -0.0180000000	       -0.1599964692	      248.6878196015	       15.9718508834	      502.6976272051	       -0.2279365208	        0.2861151316	        0.7781284453	
       10.1100783906	       12.9048709376	      593.3577077768	      -41.5313587478	        0.3144778417	       -0.0180000000	        0.0927105126	       -0.4565851043	        3.0215453361	        0.4248740162	        0.0999762317	       -0.0180000000	       -0.1599974545	      250.3915551607	       15.5739636849	      499.6743816017	       -0.3514833804	        0.3488070926	        0.5821903300	
       10.1200787871	       16.5171446349	      573.3887063213	      -41.2810955738	        0.3027186616	       -0.0180000000	        0.0919645080	       -0.4880857146	        3.2789481124	        0.3366876827	        0.0999900351	       -0.0180000000	       -0.1599994353	      254.3253192396	       14.2457908891	      501.3078013843	       -0.4608863623	        0.4117010844	        0.6550967983	
       10.1300785436	       20.2112715263	      556.9873297487	      -39.8371839772	        0.2906274572	       -0.0180000000	        0.0912002727	       -0.5328919159	        3.4868536910	        0.3165881664	        0.1000026391	       -0.0180000000	       -0.1600007340	      260.1657515530	       11.7867008909	      506.7579996012	       -0.5224826426	        0.4424972385	        0.8967284807	
       10.1400790201	       24.2020779608	      544.4966106909	      -37.6567530739	        0.2783470818	       -0.0180000000	        0.0905855289	       -0.5692274688	        3.5599393397	        0.3452480061	        0.1000072289	       -0.0180000000	       -0.1600009345	      267.0105649189	        8.5739854613	      514.0883484685	       -0.5318371519	        0.4429869406	        1.1857401119	
       10.1500787365	       28.3225921161	      536.1063140703	      -35.6963996781	        0.2660458521	       -0.0180000000	        0.0901978842	       -0.5141608479	        3.5436191022	        0.3532857669	        0.1000052057	       -0.0180000000	       -0.1600004815	      273.8299064225	        5.5263789696	      521.2644160017	       -0.5064199335	        0.4685648520	        1.3842442698	
       10.1600790932	       32.4018421714	      531.8654995305	      -34.8642348534	        0.2538951750	       -0.0180000000	        0.0900371527	       -0.3775228204	        3.4353276129	        0.3113013477	        0.1000011508	       -0.0180000000	       -0.1599999768	      280.0701136415	        3.4238522411	      527.3067516387	       -0.4475322938	        0.5189043815	        1.3391553913	
       10.1700788896	       36.4885285633	      531.6722191746	      -35.4446750439	        0.2420447609	       -0.0180000000	        0.0900257376	       -0.2122550251	        3.2059672770	        0.2996524954	        0.0999984954	       -0.0180000000	       -0.1599997444	      286.0080493492	        2.3853119338	      532.7846068293	       -0.3570702974	        0.5218158418	        1.0197848452	
       10.1800792461	       40.5677388302	      535.2586274929	      -36.9984035552	        0.2306039887	       -0.0180000000	        0.0900635867	       -0.0774542226	        3.0074627234	        0.3291475264	        0.0999980876	       -0.0180000000	       -0.1599997818	      292.4905502271	        1.9843840090	      539.2774214581	       -0.2757225847	        0.5014239005	        0.6160523978	
       10.1900790426	       44.2122247697	      542.2005524049	      -38.7156886092	        0.2196341416	       -0.0180000000	        0.0901721055	        0.0013724154	        3.0016462788	        0.3761453169	        0.0999990160	       -0.0180000000	       -0.1599999286	      300.0032366313	        1.6502358832	      547.7380009284	       -0.2502885229	        0.4937188658	        0.3431439615	
       10.2000793990	       46.7891719739	      551.9675570059	      -40.2254783972	        0.2091515364	       -0.0180000000	        0.0904429444	        0.0418932524	        3.1490423615	        0.4251383365	        0.1000000487	       -0.0180000000	       -0.1600000423	      308.0077094755	        1.3007299802	      557.5242368966	       -0.2896169297	        0.5002542157	        0.3182472655	
       10.2100791557	       47.8325854745	      563.9978318561	      -41.5709540054	        0.1991389460	       -0.0180000000	        0.0909415626	        0.0250668793	        3.2972559338	        0.4653185801	        0.1000005235	       -0.0180000000	       -0.1600000728	      315.2354120454	        1.2473520086	      566.8802464160	       -0.3525922360	        0.4850701217	        0.5247790597	
       10.2200796320	       47.2120111597	      577.7586325562	      -42.9092648012	        0.1895644663	       -0.0180000000	        0.0916407161	       -0.0143625747	        3.3274559903	        0.4610094909	        0.1000004464	       -0.0180000000	       -0.1600000448	      320.4055666603	        1.7849695364	      573.6317761433	       -0.3800626225	        0.4861920575	        0.7627405700	
       10.2300793086	       45.4661436717	      592.7600929166	      -44.7533360675	        0.1804057677	       -0.0180000000	        0.0923990558	       -0.0546680267	        3.2373465952	        0.4101785082	        0.1000001457	       -0.0180000000	       -0.1600000047	      322.8027808520	        3.1834371105	      576.0240297047	       -0.3657034930	        0.5238602915	        0.8044505397	
       10.2400797051	       43.7822200446	      608.5199344574	      -47.5137287143	        0.1716702120	       -0.0180000000	        0.0930962919	       -0.1159912020	        3.1639229383	        0.4061380963	        0.0999999132	       -0.0180000000	       -0.1599999824	      322.7194049910	        5.3218890485	      573.9512128652	       -0.3691600558	        0.4991717301	        0.6671478422	
